<svg xmlns="http://www.w3.org/2000/svg" width="512" height="512" viewBox="0 0 512 512" role="img" aria-labelledby="title desc">
  <title id="title">Skeleton Shield Bang Emote QR</title>
  <desc id="desc">QR panel with voucher link for Skeleton Shield Bang emote.</desc>
  <rect width="512" height="512" fill="#ffffff"/>
  <rect x="16" y="16" width="480" height="480" fill="#f9f9f9" stroke="#1d4f8c" stroke-width="12"/>
  <g fill="#111">
    <rect x="52" y="52" width="112" height="112"/><rect x="68" y="68" width="80" height="80" fill="#fff"/><rect x="84" y="84" width="48" height="48"/>
    <rect x="348" y="52" width="112" height="112"/><rect x="364" y="68" width="80" height="80" fill="#fff"/><rect x="380" y="84" width="48" height="48"/>
    <rect x="52" y="348" width="112" height="112"/><rect x="68" y="364" width="80" height="80" fill="#fff"/><rect x="84" y="380" width="48" height="48"/>
    <rect x="208" y="52" width="20" height="20"/><rect x="248" y="52" width="20" height="20"/><rect x="288" y="52" width="20" height="20"/>
    <rect x="188" y="92" width="20" height="20"/><rect x="228" y="92" width="20" height="20"/><rect x="268" y="92" width="20" height="20"/><rect x="308" y="92" width="20" height="20"/>
    <rect x="208" y="132" width="20" height="20"/><rect x="248" y="132" width="20" height="20"/><rect x="288" y="132" width="20" height="20"/>
    <rect x="188" y="208" width="20" height="20"/><rect x="228" y="208" width="20" height="20"/><rect x="268" y="208" width="20" height="20"/><rect x="308" y="208" width="20" height="20"/>
    <rect x="188" y="248" width="20" height="20"/><rect x="228" y="248" width="20" height="20"/><rect x="268" y="248" width="20" height="20"/><rect x="308" y="248" width="20" height="20"/>
    <rect x="188" y="288" width="20" height="20"/><rect x="228" y="288" width="20" height="20"/><rect x="268" y="288" width="20" height="20"/><rect x="308" y="288" width="20" height="20"/>
    <rect x="208" y="328" width="20" height="20"/><rect x="248" y="328" width="20" height="20"/><rect x="288" y="328" width="20" height="20"/>
    <rect x="228" y="368" width="20" height="20"/><rect x="268" y="368" width="20" height="20"/><rect x="308" y="368" width="20" height="20"/>
    <rect x="188" y="408" width="20" height="20"/><rect x="248" y="408" width="20" height="20"/><rect x="288" y="408" width="20" height="20"/>
    <rect x="348" y="208" width="20" height="20"/><rect x="388" y="208" width="20" height="20"/><rect x="428" y="208" width="20" height="20"/>
    <rect x="348" y="248" width="20" height="20"/><rect x="388" y="248" width="20" height="20"/><rect x="428" y="248" width="20" height="20"/>
    <rect x="348" y="288" width="20" height="20"/><rect x="388" y="288" width="20" height="20"/><rect x="428" y="288" width="20" height="20"/>
  </g>
  <rect x="156" y="196" width="200" height="120" rx="16" fill="#f4a000" stroke="#815500" stroke-width="8"/>
  <text x="256" y="242" text-anchor="middle" font-family="Arial, sans-serif" font-weight="700" font-size="26" fill="#fff">SKELETON</text>
  <text x="256" y="274" text-anchor="middle" font-family="Arial, sans-serif" font-weight="700" font-size="26" fill="#fff">SHIELD</text>
  <text x="256" y="464" text-anchor="middle" font-family="Arial, sans-serif" font-size="20" fill="#1d4f8c">Tap claim link if QR fails</text>
</svg>
